<?xml version="1.0" encoding="utf-8"?>
<svg version="1.1" xmlns:xlink="http://www.w3.org/1999/xlink" width="255px" height="62px" xmlns="http://www.w3.org/2000/svg">
  <g transform="matrix(1 0 0 1 -256 -128 )">
    <path d="M 486.8318118468318 129.5  C 486.8318118468318 129.5  489.46197716443896 129.81974558763068  489.46197716443896 129.81974558763068  C 489.46197716443896 129.81974558763068  509.35300266285907 159  509.35300266285907 159  C 509.35300266285907 159  489.46197716443896 188.18025441236932  489.46197716443896 188.18025441236932  C 489.46197716443896 188.18025441236932  486.8318118468317 188.5  486.8318118468317 188.5  C 486.8318118468317 188.5  257.5 188.5  257.5 188.5  C 257.5 188.5  257.5 129.5  257.5 129.5  C 257.5 129.5  486.8318118468318 129.5  486.8318118468318 129.5  Z " fill-rule="nonzero" fill="#071e33" stroke="none" />
    <path d="M 486.6212078978878 129  C 486.6212078978878 129  489.7079847762926 129.3752552283551  489.7079847762926 129.3752552283551  C 489.7079847762926 129.3752552283551  509.9020017752394 159  509.9020017752394 159  C 509.9020017752394 159  489.7079847762926 188.6247447716449  489.7079847762926 188.6247447716449  C 489.7079847762926 188.6247447716449  486.6212078978878 189  486.6212078978878 189  C 486.6212078978878 189  257 189  257 189  C 257 189  257 129  257 129  C 257 129  486.6212078978878 129  486.6212078978878 129  Z " stroke-width="2" stroke="#ffffff" fill="none" />
  </g>
</svg>