<?xml version="1.0" encoding="utf-8"?>
<svg version="1.1" xmlns:xlink="http://www.w3.org/1999/xlink" width="16px" height="16px" xmlns="http://www.w3.org/2000/svg">
  <g transform="matrix(1 0 0 1 -938 -90 )">
    <path d="M 9.072916666666666 10.927083333333332  C 9.135416666666666 10.989583333333332  9.166666666666666 11.069444444444443  9.166666666666666 11.166666666666668  L 9.166666666666666 12.833333333333334  C 9.166666666666666 12.930555555555555  9.135416666666666 13.010416666666666  9.072916666666666 13.072916666666666  C 9.010416666666666 13.135416666666666  8.930555555555555 13.166666666666666  8.833333333333334 13.166666666666666  L 7.166666666666667 13.166666666666666  C 7.0694444444444455 13.166666666666666  6.989583333333333 13.135416666666666  6.927083333333333 13.072916666666666  C 6.864583333333333 13.010416666666666  6.833333333333333 12.930555555555555  6.833333333333333 12.833333333333334  L 6.833333333333333 11.166666666666668  C 6.833333333333333 11.069444444444443  6.864583333333333 10.989583333333332  6.927083333333333 10.927083333333332  C 6.989583333333333 10.864583333333332  7.0694444444444455 10.833333333333332  7.166666666666667 10.833333333333332  L 8.833333333333334 10.833333333333332  C 8.930555555555555 10.833333333333332  9.010416666666666 10.864583333333332  9.072916666666666 10.927083333333332  Z M 10.692708333333334 3.765625  C 11.453125 4.387152777777777  11.833333333333334 5.131944444444443  11.833333333333334 6  C 11.833333333333334 6.347222222222221  11.78125 6.659722222222221  11.677083333333334 6.9375  C 11.572916666666666 7.215277777777777  11.414930555555557 7.454861111111111  11.203125 7.65625  C 10.991319444444445 7.8576388888888875  10.810763888888891 8.010416666666668  10.661458333333334 8.114583333333332  C 10.512152777777779 8.21875  10.305555555555557 8.34375  10.041666666666666 8.489583333333332  C 9.819444444444445 8.614583333333332  9.657986111111112 8.711805555555554  9.557291666666666 8.78125  C 9.456597222222223 8.850694444444443  9.366319444444445 8.934027777777779  9.286458333333334 9.03125  C 9.206597222222223 9.128472222222221  9.166666666666666 9.229166666666668  9.166666666666666 9.333333333333332  L 9.166666666666666 9.666666666666668  C 9.166666666666666 9.76388888888889  9.135416666666666 9.84375  9.072916666666666 9.90625  C 9.010416666666666 9.96875  8.930555555555555 10  8.833333333333334 10  L 7.166666666666667 10  C 7.0694444444444455 10  6.989583333333333 9.96875  6.927083333333333 9.90625  C 6.864583333333333 9.84375  6.833333333333333 9.76388888888889  6.833333333333333 9.666666666666668  L 6.833333333333333 8.958333333333332  C 6.833333333333333 8.715277777777779  6.869791666666667 8.491319444444443  6.942708333333333 8.286458333333332  C 7.015625 8.081597222222221  7.098958333333333 7.916666666666666  7.192708333333333 7.791666666666666  C 7.286458333333333 7.666666666666666  7.421875 7.543402777777777  7.598958333333333 7.421875  C 7.776041666666667 7.300347222222221  7.918402777777779 7.211805555555555  8.026041666666666 7.15625  C 8.133680555555557 7.100694444444445  8.288194444444445 7.027777777777777  8.489583333333334 6.9375  C 8.85763888888889 6.7638888888888875  9.118055555555555 6.614583333333334  9.270833333333334 6.489583333333334  C 9.423611111111112 6.364583333333334  9.500000000000002 6.194444444444445  9.5 5.979166666666666  C 9.500000000000002 5.687499999999998  9.348958333333334 5.439236111111109  9.046875 5.234375  C 8.744791666666668 5.0295138888888875  8.413194444444445 4.927083333333334  8.052083333333334 4.927083333333334  C 7.6631944444444455 4.927083333333334  7.333333333333333 5.020833333333334  7.0625 5.208333333333334  C 6.861111111111112 5.347222222222221  6.583333333333333 5.635416666666666  6.229166666666667 6.072916666666666  C 6.166666666666667 6.156249999999998  6.079861111111112 6.197916666666666  5.96875 6.197916666666666  C 5.892361111111112 6.197916666666666  5.826388888888889 6.177083333333332  5.770833333333333 6.135416666666666  L 4.645833333333333 5.28125  C 4.576388888888889 5.2326388888888875  4.534722222222222 5.163194444444443  4.520833333333333 5.072916666666666  C 4.5069444444444455 4.9826388888888875  4.524305555555556 4.902777777777777  4.572916666666667 4.833333333333334  C 5.420138888888889 3.5  6.6319444444444455 2.833333333333334  8.208333333333334 2.833333333333334  C 9.104166666666666 2.833333333333334  9.932291666666666 3.1440972222222214  10.692708333333334 3.765625  Z M 10.588541666666666 1.864583333333334  C 9.765625 1.510416666666666  8.902777777777779 1.333333333333334  8 1.333333333333334  C 7.097222222222222 1.333333333333334  6.234375 1.510416666666666  5.411458333333333 1.864583333333334  C 4.588541666666667 2.21875  3.8802083333333335 2.692708333333334  3.2864583333333335 3.286458333333334  C 2.6927083333333335 3.880208333333334  2.21875 4.588541666666666  1.8645833333333333 5.411458333333334  C 1.5104166666666667 6.234375  1.3333333333333333 7.097222222222221  1.3333333333333333 8  C 1.3333333333333333 8.902777777777779  1.5104166666666667 9.765625  1.8645833333333333 10.588541666666668  C 2.21875 11.411458333333332  2.6927083333333335 12.119791666666666  3.2864583333333335 12.713541666666666  C 3.8802083333333335 13.307291666666666  4.588541666666667 13.78125  5.411458333333333 14.135416666666666  C 6.234375 14.489583333333334  7.097222222222222 14.666666666666666  8 14.666666666666666  C 8.902777777777779 14.666666666666666  9.765625 14.489583333333334  10.588541666666666 14.135416666666666  C 11.411458333333334 13.78125  12.119791666666666 13.307291666666666  12.713541666666666 12.713541666666666  C 13.307291666666666 12.119791666666666  13.78125 11.411458333333332  14.135416666666666 10.588541666666668  C 14.489583333333334 9.765625  14.666666666666666 8.902777777777779  14.666666666666666 8  C 14.666666666666666 7.097222222222221  14.489583333333334 6.234375  14.135416666666666 5.411458333333334  C 13.78125 4.588541666666666  13.307291666666666 3.880208333333334  12.713541666666666 3.286458333333334  C 12.119791666666666 2.692708333333334  11.411458333333334 2.21875  10.588541666666666 1.864583333333334  Z M 14.927083333333334 3.984375  C 15.642361111111109 5.210069444444443  16 6.548611111111109  16 8  C 16 9.45138888888889  15.642361111111109 10.789930555555554  14.927083333333334 12.015625  C 14.211805555555557 13.241319444444445  13.241319444444445 14.211805555555555  12.015625 14.927083333333334  C 10.789930555555557 15.642361111111112  9.45138888888889 16  8 16  C 6.548611111111112 16  5.210069444444445 15.642361111111112  3.984375 14.927083333333334  C 2.758680555555556 14.211805555555555  1.7881944444444446 13.241319444444445  1.0729166666666667 12.015625  C 0.35763888888888884 10.789930555555554  0 9.45138888888889  0 8  C 0 6.548611111111109  0.35763888888888884 5.210069444444443  1.0729166666666667 3.984375  C 1.7881944444444446 2.7586805555555554  2.758680555555556 1.7881944444444429  3.984375 1.072916666666666  C 5.210069444444445 0.3576388888888875  6.548611111111112 0  8 0  C 9.45138888888889 0  10.789930555555557 0.3576388888888875  12.015625 1.072916666666666  C 13.241319444444445 1.7881944444444429  14.211805555555557 2.7586805555555554  14.927083333333334 3.984375  Z " fill-rule="nonzero" fill="#f2f2f2" stroke="none" transform="matrix(1 0 0 1 938 90 )" />
  </g>
</svg>