<?xml version="1.0" encoding="utf-8"?>
<svg version="1.1" xmlns:xlink="http://www.w3.org/1999/xlink" width="16px" height="16px" xmlns="http://www.w3.org/2000/svg">
  <g transform="matrix(1 0 0 1 -962 -90 )">
    <path d="M 9.885416666666666 9.885416666666668  C 10.40625 9.364583333333332  10.666666666666666 8.73611111111111  10.666666666666666 8  C 10.666666666666666 7.2638888888888875  10.40625 6.635416666666666  9.885416666666666 6.114583333333334  C 9.364583333333334 5.59375  8.736111111111112 5.333333333333334  8 5.333333333333334  C 7.263888888888889 5.333333333333334  6.635416666666667 5.59375  6.114583333333333 6.114583333333334  C 5.59375 6.635416666666666  5.333333333333333 7.2638888888888875  5.333333333333333 8  C 5.333333333333333 8.73611111111111  5.59375 9.364583333333332  6.114583333333333 9.885416666666668  C 6.635416666666667 10.40625  7.263888888888889 10.666666666666668  8 10.666666666666668  C 8.736111111111112 10.666666666666668  9.364583333333334 10.40625  9.885416666666666 9.885416666666668  Z M 15.916666666666666 6.619791666666666  C 15.972222222222221 6.692708333333334  16 6.774305555555555  16 6.864583333333334  L 16 9.177083333333332  C 16 9.260416666666668  15.972222222222221 9.340277777777779  15.916666666666666 9.416666666666668  C 15.861111111111112 9.493055555555554  15.791666666666666 9.538194444444443  15.708333333333334 9.552083333333332  L 13.78125 9.84375  C 13.649305555555557 10.21875  13.513888888888891 10.534722222222221  13.375 10.791666666666668  C 13.618055555555557 11.13888888888889  13.989583333333334 11.618055555555554  14.489583333333334 12.229166666666666  C 14.559027777777779 12.3125  14.59375 12.399305555555555  14.59375 12.489583333333334  C 14.59375 12.579861111111112  14.5625 12.659722222222221  14.5 12.729166666666666  C 14.3125 12.986111111111112  13.96875 13.361111111111112  13.46875 13.854166666666666  C 12.96875 14.347222222222221  12.642361111111112 14.59375  12.489583333333334 14.59375  C 12.40625 14.59375  12.315972222222223 14.5625  12.21875 14.5  L 10.78125 13.375  C 10.475694444444445 13.534722222222221  10.159722222222223 13.666666666666666  9.833333333333334 13.770833333333334  C 9.722222222222223 14.715277777777779  9.621527777777779 15.361111111111112  9.53125 15.708333333333334  C 9.48263888888889 15.902777777777779  9.35763888888889 16  9.15625 16  L 6.84375 16  C 6.746527777777779 16  6.661458333333333 15.970486111111112  6.588541666666667 15.911458333333334  C 6.515625 15.852430555555555  6.4756944444444455 15.777777777777779  6.46875 15.6875  L 6.177083333333333 13.770833333333334  C 5.836805555555556 13.659722222222221  5.524305555555556 13.53125  5.239583333333333 13.385416666666666  L 3.7708333333333335 14.5  C 3.7013888888888893 14.5625  3.6145833333333335 14.59375  3.5104166666666665 14.59375  C 3.4131944444444446 14.59375  3.3263888888888893 14.555555555555555  3.25 14.479166666666666  C 2.375 13.6875  1.8020833333333333 13.104166666666666  1.53125 12.729166666666666  C 1.482638888888889 12.659722222222221  1.4583333333333333 12.579861111111112  1.4583333333333333 12.489583333333334  C 1.4583333333333333 12.40625  1.4861111111111114 12.326388888888888  1.5416666666666667 12.25  C 1.6458333333333333 12.104166666666666  1.8229166666666667 11.87326388888889  2.0729166666666665 11.557291666666668  C 2.3229166666666665 11.241319444444443  2.5104166666666665 10.996527777777775  2.6354166666666665 10.822916666666668  C 2.4479166666666665 10.475694444444443  2.305555555555556 10.131944444444443  2.2083333333333335 9.791666666666668  L 0.3020833333333333 9.510416666666668  C 0.21180555555555558 9.496527777777779  0.1388888888888889 9.453125  0.08333333333333333 9.380208333333332  C 0.027777777777777776 9.307291666666668  0 9.225694444444443  0 9.135416666666668  L 0 6.822916666666666  C 0 6.739583333333334  0.027777777777777776 6.659722222222221  0.08333333333333333 6.583333333333334  C 0.1388888888888889 6.506944444444445  0.20486111111111113 6.461805555555555  0.28125 6.447916666666666  L 2.21875 6.15625  C 2.3159722222222223 5.836805555555555  2.451388888888889 5.517361111111111  2.625 5.197916666666666  C 2.3472222222222223 4.802083333333334  1.9756944444444446 4.322916666666666  1.5104166666666667 3.760416666666666  C 1.4409722222222223 3.677083333333334  1.40625 3.59375  1.40625 3.510416666666666  C 1.40625 3.4409722222222214  1.4375 3.361111111111109  1.5 3.270833333333334  C 1.6805555555555556 3.020833333333334  2.0225694444444446 2.647569444444443  2.5260416666666665 2.151041666666666  C 3.0295138888888893 1.6545138888888875  3.3576388888888893 1.40625  3.5104166666666665 1.40625  C 3.6006944444444446 1.40625  3.6909722222222228 1.4409722222222214  3.78125 1.510416666666666  L 5.21875 2.625  C 5.524305555555556 2.465277777777777  5.840277777777779 2.333333333333334  6.166666666666667 2.229166666666666  C 6.277777777777779 1.2847222222222214  6.378472222222222 0.6388888888888875  6.46875 0.2916666666666661  C 6.517361111111112 0.09722222222222143  6.642361111111112 0  6.84375 0  L 9.15625 0  C 9.253472222222223 0  9.338541666666666 0.029513888888887507  9.411458333333334 0.08854166666666607  C 9.484375 0.14756944444444287  9.524305555555555 0.22222222222222143  9.53125 0.3125  L 9.822916666666666 2.229166666666666  C 10.163194444444445 2.340277777777777  10.475694444444445 2.46875  10.760416666666666 2.614583333333334  L 12.239583333333334 1.5  C 12.302083333333334 1.4375  12.385416666666666 1.40625  12.489583333333334 1.40625  C 12.579861111111112 1.40625  12.666666666666666 1.4409722222222214  12.75 1.510416666666666  C 13.645833333333334 2.3368055555555554  14.21875 2.927083333333334  14.46875 3.28125  C 14.517361111111112 3.3368055555555554  14.541666666666666 3.413194444444443  14.541666666666666 3.510416666666666  C 14.541666666666666 3.59375  14.513888888888891 3.673611111111109  14.458333333333334 3.75  C 14.354166666666666 3.895833333333334  14.177083333333334 4.126736111111109  13.927083333333334 4.442708333333334  C 13.677083333333334 4.758680555555555  13.489583333333334 5.003472222222221  13.364583333333334 5.177083333333334  C 13.545138888888891 5.524305555555555  13.6875 5.864583333333332  13.791666666666666 6.197916666666666  L 15.697916666666666 6.489583333333334  C 15.788194444444445 6.503472222222221  15.861111111111112 6.546874999999998  15.916666666666666 6.619791666666666  Z " fill-rule="nonzero" fill="#f2f2f2" stroke="none" transform="matrix(1 0 0 1 962 90 )" />
  </g>
</svg>